<mxfile host="Electron" modified="2023-11-20T17:37:15.365Z" agent="Mozilla/5.0 (Windows NT 10.0; Win64; x64) AppleWebKit/537.36 (KHTML, like Gecko) draw.io/22.1.2 Chrome/114.0.5735.289 Electron/25.9.4 Safari/537.36" etag="QDhe3b_-1TU8KQtubb4i" version="22.1.2" type="device">
  <diagram name="Page-1" id="X2H_QJUnKKf00uTAU4Cb">
    <mxGraphModel dx="819" dy="488" grid="1" gridSize="10" guides="1" tooltips="1" connect="1" arrows="1" fold="1" page="1" pageScale="1" pageWidth="850" pageHeight="1100" math="0" shadow="0">
      <root>
        <mxCell id="0" />
        <mxCell id="1" parent="0" />
        <mxCell id="QqPywBFPoggKGkKeROuN-1" value="&lt;font face=&quot;Courier New&quot;&gt;HAL_TIM_IC_Start_IT(&amp;amp;htimX, TIM_CHANNEL_1)&lt;/font&gt;" style="rounded=0;whiteSpace=wrap;html=1;" vertex="1" parent="1">
          <mxGeometry x="130" y="80" width="350" height="60" as="geometry" />
        </mxCell>
        <mxCell id="QqPywBFPoggKGkKeROuN-2" value="&lt;font face=&quot;Courier New&quot;&gt;HAL_TIM_IC_Start(&amp;amp;htimX, TIM_CHANNEL_2)&lt;/font&gt;" style="rounded=0;whiteSpace=wrap;html=1;" vertex="1" parent="1">
          <mxGeometry x="130" y="180" width="350" height="60" as="geometry" />
        </mxCell>
        <mxCell id="QqPywBFPoggKGkKeROuN-3" value="&lt;font face=&quot;Courier New&quot;&gt;current_revolution = 0&lt;br&gt;current_velocity = 0.0&lt;br&gt;&lt;/font&gt;" style="rounded=0;whiteSpace=wrap;html=1;" vertex="1" parent="1">
          <mxGeometry x="130" y="270" width="350" height="60" as="geometry" />
        </mxCell>
        <mxCell id="QqPywBFPoggKGkKeROuN-6" style="edgeStyle=orthogonalEdgeStyle;rounded=0;orthogonalLoop=1;jettySize=auto;html=1;entryX=0.5;entryY=0;entryDx=0;entryDy=0;" edge="1" parent="1" source="QqPywBFPoggKGkKeROuN-4" target="QqPywBFPoggKGkKeROuN-5">
          <mxGeometry relative="1" as="geometry" />
        </mxCell>
        <mxCell id="QqPywBFPoggKGkKeROuN-4" value="&lt;font face=&quot;Courier New&quot;&gt;HAL_TIM_IC_CaptureCallback(TIM_HandleTypeDef *htim)&lt;/font&gt;" style="rounded=0;whiteSpace=wrap;html=1;" vertex="1" parent="1">
          <mxGeometry x="1040" y="40" width="410" height="60" as="geometry" />
        </mxCell>
        <mxCell id="QqPywBFPoggKGkKeROuN-8" style="edgeStyle=orthogonalEdgeStyle;rounded=0;orthogonalLoop=1;jettySize=auto;html=1;entryX=0.5;entryY=0;entryDx=0;entryDy=0;" edge="1" parent="1" source="QqPywBFPoggKGkKeROuN-5" target="QqPywBFPoggKGkKeROuN-7">
          <mxGeometry relative="1" as="geometry" />
        </mxCell>
        <mxCell id="QqPywBFPoggKGkKeROuN-5" value="&lt;font face=&quot;Courier New&quot;&gt;AS5048A_Interrupt(htim)&lt;/font&gt;" style="rounded=0;whiteSpace=wrap;html=1;" vertex="1" parent="1">
          <mxGeometry x="1040" y="130" width="410" height="60" as="geometry" />
        </mxCell>
        <mxCell id="QqPywBFPoggKGkKeROuN-7" value="&lt;font face=&quot;Courier New&quot;&gt;current_time = __HAL_TIM_GET_COUNTER(&amp;amp;htim6)&lt;/font&gt;" style="rounded=0;whiteSpace=wrap;html=1;" vertex="1" parent="1">
          <mxGeometry x="1040" y="220" width="410" height="60" as="geometry" />
        </mxCell>
        <mxCell id="QqPywBFPoggKGkKeROuN-9" value="&lt;font face=&quot;Courier New&quot;&gt;Capture the number of bits&lt;br&gt;Period is 4119 bits long with 8-bit trailer&lt;br&gt;Header is 16-bit long (12-bit init field (value=111111111111b), 4 for error field (value=1111b when ok))&lt;br&gt;When position is 0(deg), length is 16 bits&lt;br&gt;When position is MAX=2*PI * (1 - 1/4096)(deg), length is 16 + 4095 bits&lt;br&gt;Compute pwm_width / pwm_period * 4119bits that gives the number of 1 bits&lt;br&gt;@150MHz, CHANNEL_1 = period = 45500 with PSC=3&lt;br&gt;&lt;/font&gt;" style="rounded=0;whiteSpace=wrap;html=1;align=left;" vertex="1" parent="1">
          <mxGeometry x="990" y="340" width="770" height="180" as="geometry" />
        </mxCell>
      </root>
    </mxGraphModel>
  </diagram>
</mxfile>
